<?xml version="1.0" standalone="no"?>
<!DOCTYPE svg PUBLIC "-//W3C//DTD SVG 1.1//EN" "http://www.w3.org/Graphics/SVG/1.1/DTD/svg11.dtd" >
<svg xmlns="http://www.w3.org/2000/svg" xmlns:xlink="http://www.w3.org/1999/xlink" version="1.1">
<metadata>
Created by FontForge 20200314 at Sun Aug 23 00:23:55 2020
 By www-data
</metadata>
<defs>
<font id="SourceHanSerifCN-Bold-Alphabetic" horiz-adv-x="1000" vert-adv-y="1000" >
  <font-face 
    font-weight="700"
    font-stretch="normal"
    units-per-em="1000"
    panose-1="2 0 8 3 0 0 0 0 0 0"
    ascent="800"
    descent="-200"
    x-height="535"
    cap-height="742"
    bbox="2 -264 1013 841"
    underline-thickness="50"
    underline-position="-100"
    stemh="41"
    stemv="139"
    unicode-range="U+FF21-FF5A"
  />
    <missing-glyph />
    <glyph glyph-name="Identity.59976" unicode="&#xff21;" 
d="M327 280h250l-128 356zM814 44l97 -7v-37h-349v37l100 8l-70 193h-279l-65 -191l106 -10v-37h-257v37l102 9l252 704h99z" />
    <glyph glyph-name="Identity.59977" unicode="&#xff22;" 
d="M420 39h109c118 0 186 71 186 170c0 110 -60 163 -193 163h-104c0 -120 0 -225 2 -333zM516 711h-96c-2 -98 -2 -196 -2 -298h94c110 0 168 59 168 154c0 77 -41 144 -164 144zM172 750h383c196 0 263 -74 263 -174c0 -80 -40 -148 -196 -175c180 -17 240 -89 240 -194
c0 -101 -70 -207 -334 -207h-356v37l101 7c1 102 1 204 1 308v43c0 104 0 208 -1 311l-101 7v37z" />
    <glyph glyph-name="Identity.59978" unicode="&#xff23;" 
d="M826 229l1 -178c-70 -42 -148 -69 -246 -69c-236 0 -428 131 -428 393c0 252 176 393 429 393c97 0 164 -21 234 -60l-1 -186h-59l-46 182c-37 17 -75 24 -122 24c-166 0 -282 -122 -282 -353c0 -232 119 -352 283 -352c49 0 91 9 132 28l46 178h59z" />
    <glyph glyph-name="Identity.59979" unicode="&#xff24;" 
d="M400 39h53c170 0 262 105 262 336c0 238 -93 336 -256 336h-59c-1 -102 -1 -207 -1 -312v-47c0 -105 0 -210 1 -313zM152 750h334c233 0 382 -136 382 -373c0 -235 -152 -377 -391 -377h-325v37l101 7c2 101 2 204 2 308v47c0 102 0 205 -2 307l-101 7v37z" />
    <glyph glyph-name="Identity.59980" unicode="&#xff25;" 
d="M765 191h66l-9 -191h-633v37l96 7c3 101 3 202 3 308v47c0 102 0 205 -3 307l-96 7v37h613l6 -191h-67l-37 152h-270c-2 -99 -2 -200 -2 -306h215l19 99h49v-238h-49l-18 98h-216c0 -120 0 -222 2 -325h294z" />
    <glyph glyph-name="Identity.59981" unicode="&#xff26;" 
d="M718 711h-277c-2 -98 -2 -200 -2 -306h212l19 99h49v-245h-49l-19 105h-212c0 -116 0 -219 2 -319l107 -8v-37h-352v37l96 7c3 101 3 204 3 308v47c0 102 0 205 -3 307l-96 7v37h619l9 -191h-69z" />
    <glyph glyph-name="Identity.59982" unicode="&#xff27;" 
d="M902 378v-36l-81 -8c-1 -72 -2 -151 -2 -235v-51c-86 -51 -166 -66 -271 -66c-238 0 -400 147 -400 394c0 240 157 392 411 392c85 0 169 -16 241 -57l-2 -178h-59l-44 173c-38 16 -76 22 -119 22c-158 0 -274 -128 -274 -352c0 -225 114 -353 269 -353c39 0 73 5 107 17
v64c0 74 -1 153 -3 229l-114 9v36h341z" />
    <glyph glyph-name="Identity.59983" unicode="&#xff28;" 
d="M919 713l-101 -7c-1 -100 -1 -203 -1 -307v-47c0 -103 0 -206 1 -308l101 -7v-37h-349v37l101 7c2 101 2 205 2 321h-346c0 -115 0 -220 3 -321l100 -7v-37h-349v37l101 7c1 101 1 204 1 308v47c0 102 0 205 -1 307l-101 7v37h349v-37l-100 -7c-3 -97 -3 -197 -3 -298
h346c0 99 0 199 -2 298l-101 7v37h349v-37z" />
    <glyph glyph-name="Identity.59984" unicode="&#xff29;" 
d="M670 713l-96 -7c-2 -100 -2 -203 -2 -307v-47c0 -103 0 -206 2 -308l96 -7v-37h-340v37l96 7c2 101 2 204 2 308v47c0 102 0 205 -2 307l-96 7v37h340v-37z" />
    <glyph glyph-name="Identity.59985" unicode="&#xff2a;" 
d="M812 750v-37l-111 -8c-1 -97 -1 -198 -1 -300v-86c0 -58 -3 -92 -13 -141c-18 -105 -107 -196 -286 -196c-146 0 -226 61 -239 173c10 30 35 43 57 43c37 0 60 -17 71 -75l23 -92c18 -6 37 -8 59 -8c117 0 184 77 184 208c0 99 -1 260 -3 474l-134 8v37h393z" />
    <glyph glyph-name="Identity.59986" unicode="&#xff2b;" 
d="M832 43l88 -6v-37h-337v37l86 6l-191 347l-105 -113c0 -62 0 -146 2 -233l87 -7v-37h-335v37l101 7c2 101 2 204 2 308v47c0 102 0 205 -2 307l-101 7v37h335v-37l-87 -7c-2 -100 -2 -203 -2 -307v-67l340 372l-101 9v37h265v-37l-108 -10l-198 -213z" />
    <glyph glyph-name="Identity.59987" unicode="&#xff2c;" 
d="M789 221h58l-11 -221h-650v37l101 7c3 101 3 204 3 308v47c0 102 0 205 -3 307l-101 7v37h361v-37l-111 -7c-3 -101 -3 -203 -3 -307v-47c0 -105 0 -210 3 -313h304z" />
    <glyph glyph-name="Identity.59988" unicode="&#xff2d;" 
d="M869 44l104 -7v-37h-355v37l101 7c2 101 4 204 4 308v253l-243 -605h-45l-248 610l-2 -563l117 -10v-37h-284v37l121 10l4 658l-108 8v37h246l230 -557l223 557h237v-37l-102 -7c-2 -100 -2 -203 -2 -307v-47c0 -103 0 -206 2 -308z" />
    <glyph glyph-name="Identity.59989" unicode="&#xff2e;" 
d="M920 750v-37l-114 -9v-708h-81l-483 623l3 -571l147 -11v-37h-307v37l113 10v630l-22 28l-91 8v37h246l431 -559l-3 513l-146 9v37h307z" />
    <glyph glyph-name="Identity.59990" unicode="&#xff2f;" 
d="M272 375c0 -208 76 -352 228 -352s228 144 228 352c0 207 -76 352 -228 352s-228 -145 -228 -352zM500 768c214 0 380 -141 380 -393s-166 -393 -380 -393c-215 0 -380 141 -380 393s167 393 380 393z" />
    <glyph glyph-name="Identity.59991" unicode="&#xff30;" 
d="M534 711h-101c-3 -102 -3 -207 -3 -312v-70h88c132 0 193 74 193 200c0 116 -56 182 -177 182zM519 288h-89c0 -66 0 -154 3 -243l117 -8v-37h-367v37l101 7c3 101 2 204 2 308v47c0 102 1 204 -2 306l-101 8v37h349c229 0 319 -83 319 -223s-87 -239 -332 -239z" />
    <glyph glyph-name="Identity.59992" unicode="&#xff31;" 
d="M272 375c0 -208 76 -352 228 -352s228 144 228 352c0 207 -76 352 -228 352s-228 -145 -228 -352zM852 -142l14 -34c-56 -32 -109 -47 -182 -47c-164 0 -264 86 -255 210c-179 28 -309 164 -309 388c0 252 167 393 380 393c214 0 380 -141 380 -393
c0 -222 -128 -357 -305 -387c9 -113 79 -158 159 -158c42 0 79 9 118 28z" />
    <glyph glyph-name="Identity.59993" unicode="&#xff32;" 
d="M399 392h99c112 0 162 74 162 158c0 99 -57 161 -166 161h-93c-2 -100 -2 -204 -2 -319zM812 44l109 -7v-37c-47 -10 -73 -15 -120 -15c-90 0 -132 26 -147 101l-44 145c-20 76 -44 120 -119 120h-92c0 -106 0 -207 2 -307l111 -7v-37h-359v37l100 7c2 101 2 204 2 308
v47c0 102 0 205 -2 307l-100 7v37h381c173 0 269 -68 269 -190c0 -84 -59 -162 -209 -186c119 -17 148 -70 170 -162z" />
    <glyph glyph-name="Identity.59994" unicode="&#xff33;" 
d="M488 458l100 -31c156 -48 205 -124 205 -216c0 -142 -111 -229 -314 -229c-101 0 -183 23 -259 67l12 166h68l32 -165c45 -18 91 -26 147 -26c117 0 190 53 190 136c0 67 -40 109 -134 138l-94 29c-137 42 -203 113 -203 217c0 149 129 224 294 224c95 0 157 -18 222 -56
l-7 -159h-66l-35 151c-34 16 -69 23 -109 23c-100 0 -180 -44 -180 -132c0 -70 45 -110 131 -137z" />
    <glyph glyph-name="Identity.59995" unicode="&#xff34;" 
d="M754 711h-180c-2 -102 -2 -207 -2 -312v-47c0 -103 0 -206 2 -307l121 -8v-37h-390v37l121 8c2 100 2 203 2 307v47c0 104 0 209 -2 312h-179l-31 -170h-67l5 209h692l5 -209h-66z" />
    <glyph glyph-name="Identity.59996" unicode="&#xff35;" 
d="M902 750v-37l-98 -9v-384c0 -238 -114 -339 -296 -339c-188 0 -311 82 -311 330v95c0 100 0 200 -2 300l-100 7v37h352v-37l-104 -7c-2 -99 -2 -198 -2 -300v-101c0 -186 74 -251 205 -251c142 0 211 74 211 263v387l-101 9v37h246z" />
    <glyph glyph-name="Identity.59997" unicode="&#xff36;" 
d="M931 750v-37l-103 -9l-267 -708h-93l-270 711l-89 6v37h358v-37l-112 -7l212 -581l215 578l-115 10v37h264z" />
    <glyph glyph-name="Identity.59998" unicode="&#xff37;" 
d="M1013 750v-37l-85 -10l-174 -707h-91l-160 577l-156 -577h-87l-194 712l-64 5v37h310v-37l-90 -7l130 -544l142 543l-99 8v37h313v-37l-96 -8l144 -545l125 543l-92 10v37h224z" />
    <glyph glyph-name="Identity.59999" unicode="&#xff38;" 
d="M799 44l94 -7v-37h-336v37l91 7l-178 268l-196 -267l105 -8v-37h-272v37l108 9l232 301l-238 359l-83 7v37h327v-37l-93 -7l172 -260l185 258l-105 9v37h261v-37l-96 -9l-222 -292z" />
    <glyph glyph-name="Identity.60000" unicode="&#xff39;" 
d="M794 704l-219 -400v-28c0 -93 0 -150 2 -231l124 -8v-37h-396v37l124 8c2 80 2 137 2 230v25l-223 407l-82 6v37h366v-37l-113 -7l182 -344l182 341l-109 10v37h264v-37z" />
    <glyph glyph-name="Identity.60001" unicode="&#xff3a;" 
d="M764 209h61l-10 -209h-633v34l474 677h-357l-43 -170h-61l10 209h610v-34l-474 -677h378z" />
    <glyph glyph-name="Identity.60008" unicode="&#xff41;" 
d="M607 104v215c-42 -12 -88 -25 -101 -28c-99 -28 -148 -68 -148 -140c0 -63 43 -97 107 -97c52 0 95 16 142 50zM826 73l21 -16c-25 -52 -62 -75 -121 -75c-72 0 -106 37 -116 89c-62 -59 -125 -89 -215 -89c-104 0 -169 52 -169 142c0 83 55 150 251 193
c14 4 76 17 130 29v41c0 108 -33 139 -132 139c-26 0 -52 -3 -80 -10l-13 -60c-10 -61 -37 -87 -77 -87c-32 0 -54 15 -62 45c14 89 110 148 270 148c167 0 237 -59 237 -203v-257c0 -43 11 -55 34 -55c15 0 24 6 42 26z" />
    <glyph glyph-name="Identity.60009" unicode="&#xff42;" 
d="M398 440v-342c36 -34 79 -50 124 -50c91 0 156 81 156 221c0 153 -64 227 -152 227c-45 0 -88 -18 -128 -56zM396 648v-177c50 60 112 91 188 91c135 0 246 -102 246 -287c0 -188 -118 -293 -257 -293c-65 0 -131 27 -177 85l-14 -76l-224 9v33l94 7c1 58 2 143 2 198
v507l-94 8v29l224 36l16 -10z" />
    <glyph glyph-name="Identity.60010" unicode="&#xff43;" 
d="M643 449l-12 72c-20 5 -41 7 -65 7c-107 0 -192 -81 -192 -237c0 -145 93 -234 207 -234c68 0 124 22 174 73l22 -18c-55 -84 -138 -130 -252 -130c-181 0 -304 113 -304 290c0 178 130 290 325 290c123 0 213 -62 231 -151c-11 -33 -30 -49 -62 -49c-35 0 -65 21 -72 87
z" />
    <glyph glyph-name="Identity.60011" unicode="&#xff44;" 
d="M611 105v339c-37 35 -79 52 -123 52c-93 0 -158 -81 -158 -221c0 -153 64 -227 152 -227c45 0 89 19 129 57zM754 39l95 -6v-33l-230 -9l-7 82c-49 -62 -111 -91 -190 -91c-133 0 -244 99 -244 287s120 293 258 293c66 0 131 -28 177 -86v269l-94 8v29l224 36l15 -10
l-4 -158v-611z" />
    <glyph glyph-name="Identity.60012" unicode="&#xff45;" 
d="M372 310h226c40 0 51 17 51 71c0 93 -51 146 -125 146c-86 0 -146 -68 -152 -217zM746 124l23 -17c-48 -81 -140 -125 -245 -125c-171 0 -305 103 -305 292c0 186 148 288 309 288c171 0 257 -105 257 -233c0 -23 -2 -39 -6 -57h-407c6 -142 106 -215 207 -215
c73 0 126 25 167 67z" />
    <glyph glyph-name="Identity.60013" unicode="&#xff46;" 
d="M285 534l112 10c13 127 54 197 121 245c54 39 128 52 191 52c66 0 118 -21 130 -66c0 -38 -24 -63 -63 -63c-36 0 -65 21 -96 66l-22 30c-23 -10 -45 -25 -63 -44c-39 -43 -55 -100 -57 -221h177v-47l-177 2v-260c0 -67 1 -132 2 -197l122 -8v-33h-358v33l89 7
c1 67 2 132 2 198v261h-110v35z" />
    <glyph glyph-name="Identity.60014" unicode="&#xff47;" 
d="M619 -22h-181c-41 0 -75 5 -102 15c-22 -24 -34 -42 -34 -75c0 -75 67 -115 201 -115c140 0 207 46 207 114c0 32 -21 61 -91 61zM488 529c-65 0 -104 -56 -104 -149c0 -92 37 -151 104 -151c65 0 104 59 104 151c0 93 -41 149 -104 149zM433 104h164
c162 0 222 -57 222 -144c0 -111 -113 -202 -332 -202c-196 0 -267 64 -267 135c0 51 35 88 90 112c-41 22 -59 58 -59 100c0 49 28 88 86 126c-56 33 -83 87 -83 149c0 103 77 182 234 182c78 0 137 -20 175 -52l137 51l17 -12v-79l-129 14c23 -29 34 -65 34 -104
c0 -104 -77 -184 -234 -184c-50 0 -93 8 -127 23c-18 -22 -25 -37 -25 -57c0 -35 23 -58 97 -58z" />
    <glyph glyph-name="Identity.60015" unicode="&#xff48;" 
d="M779 40l81 -7v-33h-306v33l78 7c1 58 2 141 2 198v122c0 92 -30 124 -99 124c-41 0 -97 -18 -152 -64v-182c0 -55 0 -140 1 -199l79 -6v-33h-306v33l80 7c1 58 2 143 2 198v507l-93 8v29l223 36l16 -10l-4 -160v-197c80 89 145 111 222 111c102 0 174 -58 174 -194v-130
c0 -57 1 -141 2 -198z" />
    <glyph glyph-name="Identity.60016" unicode="&#xff49;" 
d="M544 676c-48 0 -86 35 -86 83c0 46 38 81 86 81c49 0 87 -35 87 -81c0 -48 -38 -83 -87 -83zM621 41l101 -8v-33h-349v33l100 8c1 58 2 142 2 197v73c0 73 -1 111 -3 165l-90 6v26l227 51l13 -8l-3 -157v-156c0 -55 1 -139 2 -197z" />
    <glyph glyph-name="Identity.60017" unicode="&#xff4a;" 
d="M583 676c-48 0 -86 35 -86 83c0 46 38 81 86 81c49 0 87 -35 87 -81c0 -48 -38 -83 -87 -83zM421 508l228 51l12 -8l-3 -157v-278c0 -158 -13 -233 -68 -295c-50 -58 -125 -85 -214 -85c-111 0 -200 73 -200 152c11 35 37 54 71 54c37 0 61 -27 69 -104l8 -65
c11 -2 21 -3 32 -3c51 0 97 24 131 87c25 47 28 129 28 218v236c0 68 -1 117 -4 165l-90 6v26z" />
    <glyph glyph-name="Identity.60018" unicode="&#xff4b;" 
d="M773 39l89 -6v-33h-213l-172 284l-72 -67c0 -51 0 -125 1 -178l79 -6v-33h-312v33l87 7c1 59 2 143 2 198v507l-94 8v29l226 36l15 -10l-4 -160v-387l252 241l-105 9v32h274v-32l-115 -9l-146 -136z" />
    <glyph glyph-name="Identity.60019" unicode="&#xff4c;" 
d="M575 39l87 -6v-33h-324v33l87 6c2 67 3 133 3 199v507l-94 8v29l227 36l15 -10l-4 -160v-410c0 -66 1 -132 3 -199z" />
    <glyph glyph-name="Identity.60020" unicode="&#xff4d;" 
d="M915 40l74 -7v-33h-293v33l72 7c1 58 2 141 2 198v126c0 89 -31 120 -84 120c-37 0 -75 -21 -114 -62c3 -15 4 -31 4 -49v-135c0 -57 1 -140 2 -198l71 -7v-33h-289v33l71 7c1 58 2 141 2 198v129c0 86 -30 117 -84 117c-36 0 -74 -20 -110 -57v-189c0 -55 1 -141 2 -199
l72 -6v-33h-287v33l68 7c1 58 2 143 2 198v84c0 63 -1 105 -3 154l-73 6v24l201 53l12 -8l5 -96c57 79 112 107 177 107c73 0 128 -35 150 -109c62 83 116 109 185 109c98 0 163 -60 163 -193v-131c0 -57 1 -140 2 -198z" />
    <glyph glyph-name="Identity.60021" unicode="&#xff4e;" 
d="M779 40l81 -7v-33h-306v33l78 7c1 58 2 141 2 198v122c0 92 -30 124 -99 124c-41 0 -97 -18 -152 -64v-182c0 -56 1 -140 2 -199l77 -6v-33h-305v33l80 7c1 59 2 143 2 198v84c0 63 -1 105 -3 154l-73 6v24l201 53l13 -8l5 -99c79 88 145 110 221 110
c102 0 174 -58 174 -194v-130c0 -57 1 -141 2 -198z" />
    <glyph glyph-name="Identity.60022" unicode="&#xff4f;" 
d="M500 -18c-182 0 -306 114 -306 292c0 179 136 288 306 288s306 -109 306 -288c0 -178 -124 -292 -306 -292zM500 17c96 0 153 85 153 255s-57 255 -153 255s-153 -85 -153 -255s57 -255 153 -255z" />
    <glyph glyph-name="Identity.60023" unicode="&#xff50;" 
d="M390 440v-342c36 -34 79 -50 124 -50c92 0 156 81 156 221c0 153 -64 227 -152 227c-44 0 -88 -18 -128 -56zM383 551l5 -81c50 61 113 92 188 92c135 0 247 -102 247 -287c0 -188 -120 -293 -258 -293c-65 0 -130 27 -177 84v-68c0 -56 0 -144 2 -210l115 -9v-33h-355
v33l94 7c2 66 2 156 2 212v324c0 66 -1 106 -3 154l-80 6v24l207 53z" />
    <glyph glyph-name="Identity.60024" unicode="&#xff51;" 
d="M618 104v353c-35 27 -75 39 -116 39c-97 0 -164 -81 -164 -220c0 -153 64 -228 152 -228c45 0 88 18 128 56zM764 -214l94 -7v-33h-351v33l111 8c1 66 2 133 2 198v88c-51 -62 -114 -91 -191 -91c-132 0 -244 103 -244 288c0 187 124 292 270 292c68 0 133 -28 179 -85
l114 81l17 -7l-3 -154v-412c0 -66 1 -133 2 -199z" />
    <glyph glyph-name="Identity.60025" unicode="&#xff52;" 
d="M508 551l6 -137c46 93 127 148 193 148c53 0 90 -19 108 -57c0 -46 -29 -82 -78 -82c-30 0 -60 6 -91 39l-25 26c-40 -24 -75 -68 -106 -125v-125c0 -55 1 -138 3 -196l127 -9v-33h-376v33l101 8c1 58 2 142 2 197v84c0 65 -1 110 -4 154l-90 6v25l218 52z" />
    <glyph glyph-name="Identity.60026" unicode="&#xff53;" 
d="M490 344l104 -27c111 -32 157 -83 157 -162c0 -107 -99 -173 -276 -173c-71 0 -149 15 -226 53l9 146h62l43 -148c36 -12 70 -17 114 -17c97 0 149 39 149 93c0 43 -23 73 -115 100l-100 29c-105 32 -152 83 -152 159c0 99 84 165 256 165c59 0 124 -14 199 -46l-13 -129
h-63l-37 128c-30 10 -58 13 -92 13c-84 0 -132 -36 -132 -84c0 -45 23 -74 113 -100z" />
    <glyph glyph-name="Identity.60027" unicode="&#xff54;" 
d="M721 86l16 -23c-40 -45 -106 -81 -190 -81c-145 0 -201 67 -200 194c0 28 1 49 1 90v233h-110v35l114 10l49 165h93l-2 -166h189v-47l-190 2v-319c0 -98 34 -136 100 -136c52 0 89 17 130 43z" />
    <glyph glyph-name="Identity.60028" unicode="&#xff55;" 
d="M761 39l82 -6v-33l-224 -13l-2 108c-56 -68 -125 -113 -208 -113c-112 0 -190 55 -188 224l4 286l-79 6v30l211 24l14 -9l-5 -163v-189c0 -92 39 -123 110 -123c57 0 103 23 141 59v365l-79 6v29l212 25l14 -9l-3 -163v-341z" />
    <glyph glyph-name="Identity.60029" unicode="&#xff56;" 
d="M858 543v-32l-90 -9l-236 -506h-71l-231 508l-81 7v32h327v-32l-89 -9l164 -388l169 388l-96 9v32h234z" />
    <glyph glyph-name="Identity.60030" unicode="&#xff57;" 
d="M983 543v-33l-81 -8l-183 -506h-67l-151 397l-146 -397h-67l-195 508l-75 6v33h315v-33l-86 -6l121 -360l132 358l-98 8v33h288v-33l-86 -7l129 -360l125 358l-96 9v33h221z" />
    <glyph glyph-name="Identity.60031" unicode="&#xff58;" 
d="M770 38l73 -5v-33h-330v33l78 6l-128 173l-141 -171l82 -8l1 -33h-239l-1 33l102 8l175 199l-189 262l-75 8v33h318l1 -33l-73 -8l117 -157l123 153l-74 12v33h231l1 -33l-106 -13l-154 -179z" />
    <glyph glyph-name="Identity.60032" unicode="&#xff59;" 
d="M872 543v-32l-91 -12l-254 -557c-65 -143 -143 -200 -249 -200c-67 0 -116 27 -118 71c12 29 36 42 61 42c27 0 48 -4 83 -30l49 -34c62 27 99 73 139 157l-254 553l-86 10v32h330v-32l-88 -12l167 -402l172 402l-99 12v32h238z" />
    <glyph glyph-name="Identity.60033" unicode="&#xff5a;" 
d="M715 184h66l-10 -184h-535v33l372 475h-259l-37 -137l-71 4l9 168h520v-33l-365 -475h265z" />
  </font>
</defs>
</svg>
